<svg width="690" height="36" viewBox="0 0 690 36" fill="none" xmlns="http://www.w3.org/2000/svg">
<path fill-rule="evenodd" clip-rule="evenodd" d="M0 8.23388H316.349C317.749 8.23158 319.128 8.58156 320.359 9.25204C321.591 9.92251 322.638 10.8923 323.403 12.0734L335.322 30.4027C336.442 32.1247 337.97 33.5383 339.769 34.5155C341.568 35.4928 343.579 36.003 345.623 36C347.666 35.997 349.677 35.4808 351.472 34.4982C353.268 33.5156 354.792 32.0976 355.907 30.3723L367.719 12.0949C368.483 10.9074 369.53 9.93188 370.765 9.25739C371.999 8.58292 373.382 8.23102 374.786 8.23388H690V1.15162e-05L374.786 3.05897e-05C372.003 -0.00532334 369.262 0.692204 366.815 2.02893C364.367 3.36565 362.292 5.29893 360.777 7.65216L348.965 25.9403C348.601 26.5024 348.103 26.9641 347.517 27.2837C346.931 27.6033 346.275 27.7707 345.608 27.7707C344.942 27.7707 344.286 27.6033 343.7 27.2837C343.114 26.9641 342.616 26.5024 342.252 25.9403L330.332 7.61099C328.814 5.26978 326.74 3.34742 324.298 2.01834C321.857 0.689253 319.124 -0.00449173 316.349 3.05897e-05L0 9.60882e-06V8.23388Z" fill="#F1F1F1"/>
</svg>
