<svg width="690" height="36" viewBox="0 0 690 36" fill="none" xmlns="http://www.w3.org/2000/svg">
<path fill-rule="evenodd" clip-rule="evenodd" d="M690 27.7662L373.651 27.7662C372.251 27.7684 370.872 27.4185 369.641 26.748C368.409 26.0775 367.362 25.1077 366.597 23.9267L354.678 5.59736C353.558 3.87534 352.03 2.46178 350.231 1.48451C348.432 0.507231 346.421 -0.00297308 344.377 4.22639e-05C342.334 0.0030576 340.323 0.519207 338.528 1.50181C336.732 2.4844 335.208 3.90245 334.093 5.62777L322.281 23.9052C321.517 25.0926 320.47 26.0681 319.235 26.7426C318.001 27.4171 316.618 27.769 315.214 27.7661L7.19829e-07 27.7661L0 36L315.214 36C317.997 36.0054 320.738 35.3078 323.185 33.9711C325.633 32.6344 327.708 30.7011 329.223 28.3479L341.035 10.0597C341.399 9.4976 341.897 9.03588 342.483 8.7163C343.069 8.39672 343.725 8.22937 344.392 8.22937C345.058 8.22937 345.714 8.39672 346.3 8.7163C346.886 9.03588 347.384 9.4976 347.748 10.0597L359.668 28.389C361.186 30.7302 363.26 32.6526 365.702 33.9817C368.143 35.3108 370.876 36.0045 373.651 36L690 36.0001L690 27.7662Z" fill="#F1F1F1"/>
</svg>
