<svg width="70" height="70" viewBox="0 0 70 70" fill="none" xmlns="http://www.w3.org/2000/svg">
<path d="M30.9087 32.2563C30.4813 32.5616 29.9318 32.7447 29.2601 32.7447H25.4745V28.776H29.0159C29.3822 28.776 29.6875 28.776 29.9928 28.837C30.2981 28.8981 30.5423 29.0202 30.7866 29.1423C31.0308 29.3255 31.214 29.5087 31.3361 29.7529C31.4582 29.9971 31.5193 30.3635 31.5193 30.7298C31.5193 31.4015 31.3361 31.951 30.9087 32.2563Z" fill="#1C1C1C"/>
<path d="M30.4813 39.8274C30.176 39.8885 29.8096 39.9496 29.4433 39.9496H25.4745V35.2481H29.5044C30.2981 35.2481 30.9697 35.4313 31.4582 35.7976C31.9467 36.225 32.1909 36.8356 32.1909 37.6904C32.1909 38.1178 32.0688 38.4842 31.9467 38.7895C31.7635 39.0948 31.5803 39.2779 31.3361 39.4611C31.0919 39.6443 30.7866 39.7664 30.4813 39.8274Z" fill="#1C1C1C"/>
<path d="M43.1813 32.8058C43.9751 32.8058 44.6467 33.05 45.0741 33.4774C45.5015 33.9048 45.8068 34.5154 45.9289 35.4313H40.4337C40.4337 35.229 40.4756 35.0266 40.5247 34.7896C40.5349 34.7405 40.5453 34.6899 40.5558 34.6375C40.6169 34.3322 40.739 34.0269 40.9832 33.7827C41.2275 33.5385 41.4717 33.2943 41.838 33.1111C42.2044 32.9279 42.6318 32.8058 43.1813 32.8058Z" fill="#1C1C1C"/>
<path fill-rule="evenodd" clip-rule="evenodd" d="M35.5 7C20.3122 7 8 19.3122 8 34.5C8 49.6878 20.3122 62 35.5 62C50.6878 62 63 49.6878 63 34.5C63 19.3122 50.6878 7 35.5 7ZM31.9467 26.1505C31.275 25.9673 30.5423 25.9062 29.7486 25.9062H21.75V42.7582H29.9318C30.6645 42.7582 31.3971 42.6361 32.1298 42.4529C32.8625 42.2698 33.5342 41.9645 34.0837 41.5981C34.6332 41.2318 35.1217 40.6823 35.427 40.0717C35.7323 39.4611 35.9154 38.7284 35.9154 37.8736C35.9154 36.8356 35.6101 35.9197 35.1217 35.187C34.6332 34.4544 33.8395 33.9048 32.8015 33.5995C33.5342 33.2332 34.1447 32.7447 34.5111 32.1952C34.9385 31.6457 35.1217 30.913 35.1217 30.0582C35.1217 29.3255 34.9996 28.6539 34.7553 28.1043C34.5111 27.5548 34.1447 27.1274 33.6563 26.8221C33.1678 26.5168 32.6183 26.2726 31.9467 26.1505ZM43.4255 40.6212C42.4486 40.6212 41.7159 40.377 41.2275 39.8885C40.739 39.4 40.3727 38.4842 40.3727 37.5072H49.226C49.2871 36.5303 49.226 35.6755 49.1039 34.8207C48.8597 33.9659 48.4934 33.1721 48.0049 32.5005C47.5164 31.7678 46.9058 31.2793 46.1121 30.8519C45.3183 30.4245 44.4025 30.2414 43.3645 30.2414C42.3876 30.2414 41.5938 30.4245 40.8001 30.7298C40.0674 31.0351 39.3957 31.5236 38.8462 32.0731C38.2967 32.6837 37.8693 33.3553 37.564 34.1491C37.2587 34.9428 37.1366 35.7976 37.1366 36.7135C37.1366 37.6904 37.2587 38.5452 37.564 39.339C37.8082 40.1327 38.2356 40.8044 38.7851 41.3539C39.3347 41.9645 39.9452 42.3919 40.739 42.6972C41.5328 43.0025 42.3876 43.1856 43.3645 43.1856C44.7688 43.1856 45.9289 42.8193 46.9058 42.2087C47.8828 41.5371 48.6155 40.4991 49.1039 39.0337H46.1121C45.99 39.4 45.6847 39.7664 45.1962 40.1327C44.7078 40.438 44.0972 40.6212 43.4255 40.6212ZM46.5395 27.0663H39.701V28.7149H46.5395V27.0663Z" fill="#1C1C1C"/>
</svg>
