<svg width="171" height="173" viewBox="0 0 171 173" fill="none" xmlns="http://www.w3.org/2000/svg">
<path fill-rule="evenodd" clip-rule="evenodd" d="M99.1617 172.9L70.4885 144.227L41.8153 172.9H0.282471V127.757L0.348864 127.824L27.2173 100.955L0.378213 74.1163L0.282471 74.2121V0.452208C0.503391 0.446909 0.724597 0.444052 0.946052 0.443652C8.87268 0.42935 16.469 3.56447 22.0638 9.15933L63.1364 50.2319C65.4219 52.4996 68.2416 54.1561 71.3375 55.0498C74.4335 55.9435 77.8007 55.9521 80.9522 55.2538L108.11 49.2297C110.061 48.7967 112.088 48.8628 114.002 49.4219C115.917 49.9809 117.658 51.0148 119.063 52.4277C120.469 53.8406 121.494 55.5868 122.043 57.5045C122.592 59.4221 122.648 61.449 122.205 63.3974L116.095 90.2757C115.377 93.4403 115.373 96.8259 116.263 99.9407C117.154 103.055 118.815 105.893 121.095 108.191L162.285 149.38C167.879 154.975 171.015 162.571 171 170.498C170.999 171.302 170.965 172.104 170.899 172.9H99.1617Z" fill="#D9D9D9"/>
</svg>
