<svg width="172" height="173" viewBox="0 0 172 173" fill="none" xmlns="http://www.w3.org/2000/svg">
<path fill-rule="evenodd" clip-rule="evenodd" d="M99.6935 172.9L71.0203 144.227L42.3471 172.9H0.814453V127.758L0.880702 127.824L27.7491 100.955L0.91005 74.1163L0.814453 74.2119V0.452205C1.03533 0.446908 1.25648 0.444052 1.47789 0.443652C9.40452 0.42935 17.0008 3.56447 22.5957 9.15933L63.6682 50.2319C65.9537 52.4996 68.7734 54.1561 71.8694 55.0498C74.9653 55.9435 78.3325 55.9521 81.484 55.2538L108.642 49.2297C110.593 48.7967 112.619 48.8628 114.534 49.4219C116.449 49.9809 118.19 51.0148 119.595 52.4277C121.001 53.8406 122.026 55.5868 122.575 57.5045C123.124 59.4221 123.18 61.449 122.737 63.3974L116.627 90.2757C115.908 93.4403 115.905 96.8259 116.795 99.9407C117.685 103.055 119.347 105.893 121.627 108.191L162.816 149.38C168.411 154.975 171.546 162.571 171.532 170.498C171.531 171.302 171.497 172.104 171.431 172.9H99.6935Z" fill="#404040"/>
</svg>
