<svg version="1.2" xmlns="http://www.w3.org/2000/svg" viewBox="0 0 172 173" width="172" height="173"><style>.s0{fill:#d9d9d9}</style><path fill-rule="evenodd" class="s0" d="m98.7 172.9l-28.7-28.7l-28.7 28.7h-41.5v-45.1h0.1l26.8-26.8l-26.8-26.9l-0.1 0.1v-73.7q0.3-0.1 0.7-0.1c7.9 0 15.5 3.2 21.1 8.8l41.1 41c2.3 2.3 5.1 4 8.2 4.8c3.1 0.9 6.4 1 9.6 0.3l27.1-6.1c2-0.4 4-0.3 5.9 0.2c1.9 0.6 3.7 1.6 5.1 3c1.4 1.4 2.4 3.2 3 5.1c0.5 1.9 0.6 3.9 0.1 5.9l-6.1 26.9c-0.7 3.1-0.7 6.5 0.2 9.6c0.9 3.2 2.5 6 4.8 8.3l41.2 41.2c5.6 5.6 8.7 13.2 8.7 21.1q0 1.2-0.1 2.4z" /></svg>