<svg version="1.2" xmlns="http://www.w3.org/2000/svg" viewBox="0 0 172 342" width="172" height="342"><style>.s0{fill:#404040}</style><path fill-rule="evenodd" class="s0" d="m70 144.2l-28.7 28.7h-41.5v-45.1h0.1l26.8-26.8l-26.8-26.9l-0.1 0.1v-73.7q0.3-0.1 0.7-0.1c7.9 0 15.5 3.2 21.1 8.8l41.1 41c2.3 2.3 5.1 4 8.2 4.8c3.1 0.9 6.4 1 9.6 0.3l27.1-6.1c2-0.4 4-0.3 5.9 0.2c1.9 0.6 3.7 1.6 5.1 3c1.4 1.4 2.4 3.2 3 5.1c0.5 1.9 0.6 3.9 0.1 5.9l-6.1 26.9c-0.7 3.1-0.7 6.5 0.2 9.6c0.9 3.2 2.5 6 4.8 8.3l41.2 41.2c5.6 5.6 8.7 13.2 8.7 21.1q0 1.2-0.1 2.4h-71.7zm-70.2 197.8v-73.9l70.2-70.2l42.7 42.8l-92.1 92.5c-5.6 5.5-13 8.7-20.8 8.8zm98.9-169.1h71.7c-0.6 7-3.6 13.7-8.7 18.7l-22.1 22.2zm-98.9 41.5l41.5-41.5h-41.5z" /></svg>