<svg width="155" height="147" viewBox="0 0 155 147" fill="none" xmlns="http://www.w3.org/2000/svg">
<mask id="mask0_12_61" style="mask-type:alpha" maskUnits="userSpaceOnUse" x="0" y="0" width="155" height="147">
<rect width="155" height="147" fill="#F1F1F1"/>
</mask>
<g mask="url(#mask0_12_61)">
<path fill-rule="evenodd" clip-rule="evenodd" d="M45.8777 -1.12234C57.78 -13.0246 73.923 -19.7113 90.7554 -19.7112C107.588 -19.7113 123.731 -13.0246 135.633 -1.12234L113.194 21.3165C107.243 15.3653 99.1715 12.022 90.7554 12.022C82.3392 12.022 74.2677 15.3653 68.3165 21.3165L90.7554 43.7553L45.8777 88.633L1.00006 43.7553L45.8777 -1.12234ZM148.679 101.679L126.24 79.24C132.191 73.2888 140.263 69.9455 148.679 69.9455C157.095 69.9455 165.167 73.2888 171.118 79.24L193.557 56.8011C181.654 44.8989 165.511 38.2122 148.679 38.2122C131.846 38.2122 115.703 44.8989 103.801 56.8011L58.9235 101.679L103.801 146.556L148.679 101.679Z" fill="#D9D9D9"/>
</g>
</svg>
