<svg width="70" height="70" viewBox="0 0 70 70" fill="none" xmlns="http://www.w3.org/2000/svg">
<path fill-rule="evenodd" clip-rule="evenodd" d="M8 34.5C8 49.6878 20.3122 62 35.5 62C50.6878 62 63 49.6878 63 34.5C63 19.3122 50.6878 7 35.5 7C20.3122 7 8 19.3122 8 34.5ZM28.3443 22.347C28.8558 22.8603 28.8682 22.9166 28.8682 24.7349C28.8682 26.1292 28.7981 26.6973 28.5891 26.9966C28.3366 27.3584 28.3366 27.4343 28.5891 27.7961C28.8001 28.0983 28.8682 28.6721 28.8682 30.1477C28.8682 32.0655 28.8591 32.109 28.3443 32.6255L27.8204 33.1512H21.8779V21.8214H27.8204L28.3443 22.347ZM32.9907 33.1512H30.4813V21.8214H32.9907V33.1512ZM41.0967 22.3206C41.4969 22.7224 41.5054 22.8159 41.5579 27.4063L41.6111 32.0828L40.5463 33.1512H38.283C35.7067 33.1512 35.1204 32.9658 34.8024 32.0508C34.5355 31.2823 34.5352 23.6913 34.802 22.9231C35.1342 21.9669 35.6389 21.8152 38.3185 21.8661C40.5144 21.908 40.719 21.9415 41.0967 22.3206ZM24.5068 23.5599C24.441 23.6257 24.3872 24.3136 24.3872 25.0885V26.4972H26.3589V25.0777C26.3589 23.9492 26.3008 23.6359 26.0753 23.5491C25.6955 23.4029 24.6561 23.4099 24.5068 23.5599ZM37.3725 23.8496C37.3241 23.976 37.3065 25.6958 37.3332 27.6712L37.382 31.2629H38.9951L39.046 27.846C39.074 25.9666 39.0523 24.2468 38.9978 24.0244C38.9156 23.6884 38.7765 23.6198 38.1796 23.6198C37.7611 23.6198 37.4236 23.7158 37.3725 23.8496ZM24.4667 28.5272C24.4138 28.6657 24.3944 29.3782 24.4236 30.1109C24.4763 31.4293 24.4821 31.4433 24.9915 31.5017C25.2745 31.5343 25.7011 31.5116 25.9396 31.4516C26.3599 31.3458 26.3716 31.2969 26.3212 29.8639L26.2692 28.3855L25.4161 28.3306C24.8112 28.2916 24.5348 28.349 24.4667 28.5272ZM45.851 30.5603C46.7542 31.5746 46.0722 33.1512 44.7304 33.1512C43.1164 33.1512 42.6279 30.9841 44.0631 30.1902C44.6834 29.847 45.3362 29.9823 45.851 30.5603ZM24.3872 45.3802H27.7928V47.1786H21.8779V35.8488H24.3872V45.3802ZM31.1983 47.1786H28.689V35.8488H31.1983V47.1786ZM37.5612 42.4129L37.6589 35.8488H39.9809V47.1786H37.6822L37.1558 45.7849C36.8662 45.0184 36.3621 43.6223 36.0354 42.6827C35.7088 41.743 35.3742 40.8972 35.2915 40.8034C35.2091 40.7093 35.1415 42.1054 35.1415 43.9056V47.1786H32.8114V35.8324L35.2304 35.9387L37.5612 42.4129ZM44.1034 38.5764C44.1034 40.0764 44.164 41.2438 44.2378 41.1704C44.3117 41.097 44.8195 39.8898 45.3661 38.4877L46.36 35.9387L47.7633 35.8858C48.8545 35.8447 49.1463 35.8846 49.0758 36.0657C49.026 36.1937 48.532 37.4062 47.9782 38.7604C47.4243 40.1144 46.9712 41.3238 46.9712 41.4479C46.9712 41.6445 47.3491 42.6614 48.7826 46.3244L49.1169 47.1786L46.3439 47.1745L45.3864 44.5976C44.8598 43.1803 44.3569 41.9067 44.2689 41.7673C44.1712 41.6123 44.1079 42.6149 44.1061 44.3462L44.1034 47.1786H41.5941V35.8488H44.1034V38.5764Z" fill="#292929"/>
</svg>
