<svg width="70" height="70" viewBox="0 0 70 70" fill="none" xmlns="http://www.w3.org/2000/svg">
<path fill-rule="evenodd" clip-rule="evenodd" d="M8 34.5C8 19.3122 20.0883 7 35 7C49.9117 7 62 19.3122 62 34.5C62 49.6878 49.9117 62 35 62C20.0883 62 8 49.6878 8 34.5ZM35 20.75C42.425 20.75 48.5 26.9375 48.5 34.5C48.5 41.375 43.6063 47.2187 36.8563 48.25V38.4531H40.0625L40.7375 34.5H37.025V31.9219C37.025 30.8906 37.5312 29.8594 39.2188 29.8594H40.9062V26.4219C40.9062 26.4219 39.3875 26.0781 37.8688 26.0781C34.8313 26.0781 32.8062 27.9687 32.8062 31.4062V34.5H29.4312V38.4531H32.8062V48.0781C26.3937 47.0469 21.5 41.375 21.5 34.5C21.5 26.9375 27.575 20.75 35 20.75Z" fill="#1C1C1C"/>
</svg>
