<svg width="70" height="70" viewBox="0 0 70 70" fill="none" xmlns="http://www.w3.org/2000/svg">
<path fill-rule="evenodd" clip-rule="evenodd" d="M34.5 62C19.3122 62 7 49.6878 7 34.5C7 19.3122 19.3122 7 34.5 7C49.6878 7 62 19.3122 62 34.5C62 49.6878 49.6878 62 34.5 62ZM42.064 26.0352L44.0294 24.6563C47.4978 22.8561 48.2485 26.8211 48.2485 26.8211L48.25 43.1762C48.1529 44.6685 46.8041 44.8033 46.8041 44.8033H42.064V34.2058L34.4938 39.7734L26.9344 33.9821L26.936 44.8125H22.1959C22.1959 44.8125 20.8456 44.6792 20.75 43.1854V26.8288C20.75 26.8288 21.5022 22.8653 24.9706 24.6655L26.9252 26.0367L34.5802 31.7039L42.064 26.0352Z" fill="#f1f1f1"/>
</svg>
