<svg width="65" height="56" viewBox="0 0 65 56" fill="none" xmlns="http://www.w3.org/2000/svg">
<path fill-rule="evenodd" clip-rule="evenodd" d="M0 28C0 20.5739 2.98956 13.452 8.31104 8.20102C13.6325 2.94999 20.85 0 28.3756 0V14C24.6128 14 21.0041 15.475 18.3433 18.1005C15.6826 20.726 14.1878 24.287 14.1878 28H28.3756L28.3756 56H0L0 28ZM65 28H50.8122C50.8122 24.287 52.307 20.726 54.9677 18.1005C57.6284 15.475 61.2372 14 65 14V0C57.4743 0 50.2568 2.94999 44.9354 8.20102C39.6139 13.452 36.6244 20.5739 36.6244 28V56L65 56V28Z" fill="#F1F1F1"/>
</svg>
