<svg width="65" height="57" viewBox="0 0 65 57" fill="none" xmlns="http://www.w3.org/2000/svg">
<path fill-rule="evenodd" clip-rule="evenodd" d="M0 28.5C0 20.9413 2.98956 13.6922 8.31104 8.34747C13.6325 3.00266 20.85 0 28.3756 0V14.25C24.6128 14.25 21.0041 15.7514 18.3433 18.4237C15.6826 21.0961 14.1878 24.7207 14.1878 28.5H28.3756L28.3756 57H0L0 28.5ZM65 28.5H50.8122C50.8122 24.7207 52.307 21.0961 54.9677 18.4237C57.6284 15.7514 61.2372 14.25 65 14.25V0C57.4743 0 50.2568 3.00266 44.9354 8.34747C39.6139 13.6922 36.6244 20.9413 36.6244 28.5V57L65 57V28.5Z" fill="#1A1A1A"/>
</svg>
