<svg width="70" height="70" viewBox="0 0 70 70" fill="none" xmlns="http://www.w3.org/2000/svg">
<path d="M35 39.3125C32.4688 39.3125 30.275 37.25 30.275 34.5C30.275 31.9219 32.3 29.6875 35 29.6875C37.5312 29.6875 39.725 31.75 39.725 34.5C39.725 37.0781 37.5312 39.3125 35 39.3125Z" fill="#f1f1f1"/>
<path fill-rule="evenodd" clip-rule="evenodd" d="M40.7375 22.8125H29.2625C27.9125 22.9844 27.2375 23.1562 26.7313 23.3281C26.0563 23.5 25.55 23.8437 25.0438 24.3594C24.6432 24.7674 24.4539 25.1754 24.2251 25.6686C24.1648 25.7985 24.1016 25.9348 24.0312 26.0781C24.0051 26.1579 23.975 26.2418 23.9427 26.3317C23.7662 26.8229 23.525 27.494 23.525 28.6562V40.3437C23.6938 41.7187 23.8625 42.4062 24.0312 42.9219C24.2 43.6094 24.5375 44.125 25.0438 44.6406C25.4443 45.0486 25.8449 45.2414 26.3291 45.4744C26.4568 45.5359 26.5904 45.6001 26.7313 45.6719C26.8096 45.6985 26.8919 45.7292 26.9802 45.7621C27.4625 45.9419 28.1213 46.1875 29.2625 46.1875H40.7375C42.0875 46.0156 42.7625 45.8437 43.2687 45.6719C43.9437 45.5 44.45 45.1562 44.9562 44.6406C45.3568 44.2326 45.5461 43.8246 45.7749 43.3314C45.8352 43.2014 45.8983 43.0653 45.9688 42.9219C45.9949 42.8421 46.025 42.7582 46.0573 42.6683C46.2338 42.1771 46.475 41.506 46.475 40.3437V28.6562C46.3062 27.2812 46.1375 26.5937 45.9688 26.0781C45.8 25.3906 45.4625 24.875 44.9562 24.3594C44.5557 23.9514 44.1551 23.7586 43.6709 23.5256C43.5434 23.4642 43.4094 23.3997 43.2687 23.3281C43.1904 23.3015 43.1081 23.2708 43.0198 23.2379C42.5375 23.0581 41.8787 22.8125 40.7375 22.8125ZM35 27.1094C30.95 27.1094 27.7437 30.375 27.7437 34.5C27.7437 38.625 30.95 41.8906 35 41.8906C39.05 41.8906 42.2562 38.625 42.2562 34.5C42.2562 30.375 39.05 27.1094 35 27.1094ZM44.1125 26.9375C44.1125 27.8867 43.357 28.6562 42.425 28.6562C41.493 28.6562 40.7375 27.8867 40.7375 26.9375C40.7375 25.9883 41.493 25.2187 42.425 25.2187C43.357 25.2187 44.1125 25.9883 44.1125 26.9375Z" fill="#f1f1f1"/>
<path fill-rule="evenodd" clip-rule="evenodd" d="M8 34.5C8 19.3122 20.0883 7 35 7C49.9117 7 62 19.3122 62 34.5C62 49.6878 49.9117 62 35 62C20.0883 62 8 49.6878 8 34.5ZM29.2625 20.2344H40.7375C42.2562 20.4062 43.2687 20.5781 44.1125 20.9219C45.125 21.4375 45.8 21.7812 46.6437 22.6406C47.4875 23.5 47.9938 24.3594 48.3313 25.2187C48.6688 26.0781 49.0062 27.1094 49.0062 28.6562V40.3437C48.8375 41.8906 48.6688 42.9219 48.3313 43.7812C47.825 44.8125 47.4875 45.5 46.6437 46.3594C45.8 47.2187 44.9562 47.7344 44.1125 48.0781C43.2687 48.4219 42.2562 48.7656 40.7375 48.7656H29.2625C27.7438 48.5937 26.7313 48.4219 25.8875 48.0781C24.875 47.5625 24.2 47.2187 23.3563 46.3594C22.5125 45.5 22.0063 44.6406 21.6688 43.7812C21.3313 42.9219 20.9937 41.8906 20.9937 40.3437V28.6562C21.1625 27.1094 21.3313 26.0781 21.6688 25.2187C22.175 24.1875 22.5125 23.5 23.3563 22.6406C24.2 21.7812 25.0438 21.2656 25.8875 20.9219C26.7313 20.5781 27.7438 20.2344 29.2625 20.2344Z" fill="#f1f1f1"/>
</svg>
