<svg width="184" height="56" viewBox="0 0 184 56" fill="none" xmlns="http://www.w3.org/2000/svg">
<path fill-rule="evenodd" clip-rule="evenodd" d="M49.5283 24.1656L53.1529 26.4761C53.4133 26.642 53.6274 26.8708 53.7755 27.1412C53.9236 27.4117 54.0008 27.715 54 28.0231C53.9992 28.3312 53.9204 28.6342 53.7709 28.9039C53.6214 29.1735 53.4061 29.4012 53.1449 29.5658L49.5415 31.8362C49.1174 32.1037 48.7677 32.4734 48.5247 32.9113C48.2817 33.3491 48.1533 33.841 48.1513 34.3414V43.3876C48.1513 44.6109 47.664 45.784 46.7966 46.649C45.9292 47.514 44.7527 48 43.526 48H38.6999V32.686L23.3971 32.7331V8H43.526C44.7527 8 45.9292 8.48595 46.7966 9.35095C47.664 10.216 48.1513 11.3891 48.1513 12.6124V21.669C48.1532 22.1667 48.2803 22.6561 48.5209 23.0922C48.7614 23.5284 49.1078 23.8974 49.5283 24.1656ZM32.849 23.2604H38.6999V17.4252H32.849V23.2604ZM12.6253 8.05455H17.4514V38.5748H32.849V48H12.6253C11.3986 48 10.2221 47.514 9.35471 46.649C8.4873 45.784 8 44.6109 8 43.3876V12.667C8 11.4437 8.4873 10.2705 9.35471 9.4055C10.2221 8.5405 11.3986 8.05455 12.6253 8.05455Z" fill="#1C1C1C"/>
<path d="M59.0041 25H71.3907V21.8128H62.9156V8.09818H59.0041V25ZM80.8733 25.2897C85.6782 25.2897 88.5274 22.5372 88.5274 17.5632V8.09818H84.6641V17.4183C84.6641 20.6297 83.2878 21.9577 80.8974 21.9577C78.5311 21.9577 77.1307 20.6297 77.1307 17.4183V8.09818H73.2191V17.5632C73.2191 22.5372 76.0683 25.2897 80.8733 25.2897ZM108.932 24.7344C108.136 25.5795 107.218 25.99 106.18 25.99C105.335 25.99 104.61 25.6761 103.789 24.8068C107.387 23.6479 109.826 20.5089 109.826 16.5491C109.826 11.5027 105.89 7.80844 100.578 7.80844C95.2419 7.80844 91.3303 11.5268 91.3303 16.5491C91.3303 21.1367 94.5899 24.6378 99.2259 25.2173C101.834 27.9699 103.596 28.8874 106.107 28.8874C107.967 28.8874 109.56 28.1631 110.671 26.8109L108.932 24.7344ZM95.2902 16.5491C95.2902 13.3377 97.5598 11.1405 100.578 11.1405C103.596 11.1405 105.866 13.3377 105.866 16.5491C105.866 19.7604 103.596 21.9577 100.578 21.9577C97.5598 21.9577 95.2902 19.7604 95.2902 16.5491ZM131.816 25L131.768 8.09818H128.557L122.327 18.6015L116.001 8.09818H112.765V25H116.436V15.0762L121.385 23.2132H123.148L128.122 14.8589L128.146 25H131.816ZM148.454 25H152.559L145.001 8.09818H141.138L133.605 25H137.613L139.11 21.3782H146.957L148.454 25ZM140.366 18.4083L143.046 11.9373L145.726 18.4083H140.366ZM165.951 8.09818V18.36L157.548 8.09818H154.313V25H158.176V14.7382L166.603 25H169.814V8.09818H165.951ZM71.4148 39.2111C72.7911 38.4867 73.6604 37.1828 73.6604 35.4927C73.6604 32.8608 71.4873 31.0982 67.2618 31.0982H59.0041V48H67.7447C72.1875 48 74.5055 46.3098 74.5055 43.3882C74.5055 41.2634 73.2982 39.8147 71.4148 39.2111ZM66.7789 34.0439C68.6864 34.0439 69.7247 34.6959 69.7247 36.0239C69.7247 37.3519 68.6864 38.0279 66.7789 38.0279H62.8915V34.0439H66.7789ZM67.455 45.0543H62.8915V40.8771H67.455C69.4832 40.8771 70.5697 41.5532 70.5697 42.9777C70.5697 44.4265 69.4832 45.0543 67.455 45.0543ZM90.0949 48H94.1997L86.6421 31.0982H82.7789L75.2455 48H79.2536L80.7506 44.3782H88.5979L90.0949 48ZM82.0062 41.4083L84.6863 34.9373L87.3665 41.4083H82.0062ZM109.596 31.0982H105.757L101.242 38.6074L96.7266 31.0982H92.5736L99.117 41.9636V48H103.029V42.0119L109.596 31.0982ZM122.823 48H126.928L119.371 31.0982H115.507L107.974 48H111.982L113.479 44.3782H121.326L122.823 48ZM114.735 41.4083L117.415 34.9373L120.095 41.4083H114.735ZM134.235 48.2897C139.064 48.2897 141.406 45.8752 141.406 43.0502C141.406 36.8448 131.579 38.9937 131.579 35.879C131.579 34.8166 132.472 33.9473 134.79 33.9473C136.287 33.9473 137.905 34.382 139.475 35.2753L140.682 32.3055C139.112 31.3155 136.939 30.8084 134.815 30.8084C130.01 30.8084 127.692 33.1988 127.692 36.0721C127.692 42.35 137.519 40.1769 137.519 43.3399C137.519 44.3782 136.577 45.1508 134.259 45.1508C132.231 45.1508 130.106 44.4265 128.682 43.3882L127.354 46.334C128.851 47.4929 131.555 48.2897 134.235 48.2897ZM151.588 48.2897C156.393 48.2897 159.242 45.5372 159.242 40.5632V31.0982H155.379V40.4183C155.379 43.6297 154.003 44.9577 151.612 44.9577C149.246 44.9577 147.846 43.6297 147.846 40.4183V31.0982H143.934V40.5632C143.934 45.5372 146.783 48.2897 151.588 48.2897ZM166.326 48H170.237V34.2854H175.646V31.0982H160.917V34.2854H166.326V48Z" fill="#1C1C1C"/>
</svg>
