<svg width="70" height="70" viewBox="0 0 70 70" fill="none" xmlns="http://www.w3.org/2000/svg">
<path fill-rule="evenodd" clip-rule="evenodd" d="M35 62C20.0883 62 8 49.6878 8 34.5C8 19.3122 20.0883 7 35 7C49.9117 7 62 19.3122 62 34.5C62 49.6878 49.9117 62 35 62ZM36.1675 27.6377C33.7493 28.6621 28.9164 30.7824 21.6686 33.9986C20.4917 34.4753 19.8752 34.9417 19.819 35.3977C19.7242 36.1683 20.6717 36.4717 21.9619 36.885C22.1374 36.9412 22.3193 36.9994 22.5057 37.0611C23.7751 37.4814 25.4827 37.9731 26.3704 37.9926C27.1756 38.0103 28.0743 37.6722 29.0666 36.9783C35.8384 32.3225 39.334 29.9692 39.5534 29.9185C39.7083 29.8827 39.9228 29.8377 40.0682 29.9693C40.2136 30.1009 40.1993 30.3501 40.1839 30.417C40.09 30.8245 36.3707 34.3463 34.446 36.1689C33.846 36.737 33.4204 37.1401 33.3334 37.2321C33.1384 37.4383 32.9398 37.6333 32.7489 37.8208C31.5696 38.9787 30.6852 39.847 32.7979 41.265C33.8131 41.9464 34.6255 42.5099 35.436 43.0721C36.3211 43.686 37.204 44.2984 38.3462 45.061C38.6372 45.2553 38.9152 45.4571 39.1859 45.6537C40.2159 46.4016 41.1414 47.0736 42.2847 46.9664C42.949 46.9042 43.6353 46.2679 43.9838 44.3703C44.8074 39.8857 46.4263 30.1689 46.8005 26.1649C46.8333 25.8141 46.792 25.3651 46.7589 25.168C46.7258 24.9709 46.6566 24.6901 46.4051 24.4822C46.1072 24.2361 45.6474 24.1842 45.4417 24.1877C44.5066 24.2046 43.0719 24.7127 36.1675 27.6377Z" fill="#1C1C1C"/>
</svg>
