<svg width="70" height="70" viewBox="0 0 70 70" fill="none" xmlns="http://www.w3.org/2000/svg">
<path fill-rule="evenodd" clip-rule="evenodd" d="M35 7C20.0883 7 8 19.3122 8 34.5C8 49.6878 20.0883 62 35 62C49.9117 62 62 49.6878 62 34.5C62 19.3122 49.9117 7 35 7ZM40.262 20.75C40.262 21.1586 40.2995 21.5611 40.3685 21.9506C40.7006 23.751 41.7467 25.2961 43.1999 26.2602C44.2146 26.937 45.4172 27.3265 46.7137 27.3265L46.7135 28.38V32.0513C44.3082 32.0513 42.0785 31.266 40.2619 29.9379V39.5473C40.2619 44.3424 36.4287 48.25 31.7248 48.25C29.9083 48.25 28.217 47.6624 26.8328 46.6728C24.6281 45.0957 23.1875 42.4907 23.1875 39.5473C23.1875 34.7458 27.0146 30.8446 31.7185 30.8509C32.1131 30.8509 32.4952 30.8829 32.871 30.934V32.0513L32.8573 32.058L32.871 32.0577V35.761C32.5077 35.646 32.1193 35.5758 31.7185 35.5758C29.5701 35.5758 27.8225 37.3573 27.8225 39.5473C27.8225 41.0733 28.6743 42.395 29.9145 43.0654C29.9261 43.0816 29.9379 43.0976 29.9497 43.1136L29.9705 43.1415C29.9562 43.1135 29.9397 43.0859 29.9209 43.059C30.4658 43.3527 31.0796 43.5187 31.731 43.5187C33.8292 43.5187 35.5456 41.814 35.6207 39.6942L35.6269 20.75H40.262Z" fill="#1C1C1C"/>
</svg>
