<svg width="70" height="70" viewBox="0 0 70 70" fill="none" xmlns="http://www.w3.org/2000/svg">
<path fill-rule="evenodd" clip-rule="evenodd" d="M7 34.5C7 19.3122 19.3122 7 34.5 7C49.6878 7 62 19.3122 62 34.5C62 49.6878 49.6878 62 34.5 62C19.3122 62 7 49.6878 7 34.5ZM44.9844 26.7656C46.1875 26.5937 47.2187 26.4219 48.25 25.9062C47.5625 27.1094 46.5312 28.1406 45.3281 28.8281C45.6719 36.9062 39.8281 45.6719 29.3438 45.6719C26.25 45.6719 23.3281 44.6406 20.75 43.0938C23.6719 43.4375 26.7656 42.5781 28.8281 41.0312C26.25 41.0312 24.1875 39.3125 23.5 37.0781C24.3594 37.25 25.2188 37.0781 26.0781 36.9062C23.5 36.2188 21.6094 33.8125 21.6094 31.2344C22.4688 31.5781 23.3281 31.9219 24.1875 31.9219C21.7813 30.2031 20.9219 26.9375 22.4688 24.3594C25.3906 27.7969 29.5156 30.0312 34.1563 30.2031C33.2969 26.7656 36.0469 23.3281 39.6562 23.3281C41.2031 23.3281 42.75 24.0156 43.7812 25.0469C45.1562 24.7031 46.3594 24.3594 47.3906 23.6719C47.0469 25.0469 46.1875 26.0781 44.9844 26.7656Z" fill="#1C1C1C"/>
</svg>
