<svg width="70" height="70" viewBox="0 0 70 70" fill="none" xmlns="http://www.w3.org/2000/svg">
<path fill-rule="evenodd" clip-rule="evenodd" d="M29.6563 44.2969C31.375 45.3281 33.4375 45.8437 35.5 45.8437C41.8594 45.8437 46.8438 40.6875 46.8438 34.6719C46.8438 31.5781 45.8125 28.8281 43.5781 26.5938C41.3438 24.5312 38.5938 23.3281 35.5 23.3281C29.3125 23.3281 24.1562 28.4844 24.1562 34.6719C24.1562 36.7344 24.6719 38.7969 25.875 40.6875L26.2188 41.2031L25.0156 45.3281L29.3125 44.125L29.6563 44.2969ZM39.2813 36.2188C39.625 36.2188 41.3438 37.0781 41.6875 37.25C41.741 37.2768 41.7946 37.2994 41.8474 37.3217C42.1341 37.4427 42.4018 37.5557 42.5469 38.2812C42.7188 38.2812 42.7187 38.9687 42.375 39.8281C42.2031 40.5156 40.8281 41.375 40.1406 41.375C40.0242 41.375 39.9126 41.3849 39.7935 41.3954C39.2093 41.4471 38.4424 41.5149 36.0156 40.5156C33.0036 39.3108 30.9153 36.3905 30.3288 35.5704C30.246 35.4546 30.1931 35.3806 30.1719 35.3594C30.1426 35.3009 30.0834 35.2074 30.0054 35.0843C29.6252 34.4839 28.7969 33.1761 28.7969 31.75C28.7969 30.0313 29.6562 29.1719 30 28.8281C30.3437 28.4844 30.6875 28.4844 30.8594 28.4844H31.5469C31.7188 28.4844 32.0625 28.4844 32.2344 29C32.5781 29.6875 33.2656 31.4062 33.2656 31.5781C33.2656 31.6354 33.2847 31.6927 33.3038 31.75C33.342 31.8646 33.3802 31.9792 33.2656 32.0937C33.1797 32.1797 33.1367 32.2656 33.0938 32.3516C33.0508 32.4375 33.0078 32.5234 32.9219 32.6094L32.4063 33.125C32.2344 33.2969 32.0625 33.4688 32.2344 33.8125C32.4063 34.1563 33.0938 35.3594 34.125 36.2188C35.2854 37.2341 36.2009 37.6373 36.665 37.8418C36.7509 37.8796 36.8213 37.9107 36.875 37.9375C37.2187 37.9375 37.3906 37.9375 37.5625 37.7656C37.6485 37.5938 37.8633 37.3359 38.0781 37.0781C38.293 36.8203 38.5078 36.5625 38.5937 36.3906C38.7656 36.0469 38.9375 36.0469 39.2813 36.2188Z" fill="#f9f9f9"/>
<path fill-rule="evenodd" clip-rule="evenodd" d="M8 34.5C8 19.3122 20.3122 7 35.5 7C50.6878 7 63 19.3122 63 34.5C63 49.6878 50.6878 62 35.5 62C20.3122 62 8 49.6878 8 34.5ZM35.5 20.75C39.1094 20.75 42.5469 22.125 45.125 24.7031C47.7031 27.2813 49.25 30.7188 49.25 34.3281C49.25 41.8906 43.0625 48.0781 35.5 48.0781C33.2656 48.0781 31.0313 47.3906 28.9688 46.3594L21.75 48.25L23.6406 41.375C22.4375 39.3125 21.75 36.9063 21.75 34.5C21.75 26.9375 27.9375 20.75 35.5 20.75Z" fill="#f9f9f9"/>
</svg>
