<svg width="70" height="70" viewBox="0 0 70 70" fill="none" xmlns="http://www.w3.org/2000/svg">
<path d="M38.9688 34.5L31.75 30.375V38.625L38.9688 34.5Z" fill="#1C1C1C"/>
<path fill-rule="evenodd" clip-rule="evenodd" d="M7 34.5C7 19.3122 19.3122 7 34.5 7C49.6878 7 62 19.3122 62 34.5C62 49.6878 49.6878 62 34.5 62C19.3122 62 7 49.6878 7 34.5ZM45.1563 25.3906C46.3594 25.7344 47.2188 26.5938 47.5625 27.7969C48.25 30.0313 48.25 34.5 48.25 34.5C48.25 34.5 48.25 38.9688 47.7344 41.2031C47.3906 42.4063 46.5312 43.2656 45.3281 43.6094C43.0937 44.125 34.5 44.125 34.5 44.125C34.5 44.125 25.7344 44.125 23.6719 43.6094C22.4687 43.2656 21.6094 42.4063 21.2656 41.2031C20.75 38.9688 20.75 34.5 20.75 34.5C20.75 34.5 20.75 30.0313 21.0937 27.7969C21.4375 26.5938 22.2969 25.7344 23.5 25.3906C25.7344 24.875 34.3281 24.875 34.3281 24.875C34.3281 24.875 43.0938 24.875 45.1563 25.3906Z" fill="#1C1C1C"/>
</svg>
